<?xml version="1.0" encoding="UTF-8" standalone="no"?>
<!DOCTYPE svg PUBLIC "-//W3C//DTD SVG 1.1//EN"
 "http://www.w3.org/Graphics/SVG/1.1/DTD/svg11.dtd">
<!-- Generated by graphviz version 7.0.1 (20221109.1506)
 -->
<!-- Title: unnamed Pages: 1 -->
<svg width="100%" height="100%" xmlns="http://www.w3.org/2000/svg" xmlns:xlink="http://www.w3.org/1999/xlink">
<script type="text/ecmascript"><![CDATA[
/**
 *  SVGPan library 1.2.2
 * ======================
 *
 * Given an unique existing element with id "viewport" (or when missing, the
 * first g-element), including the library into any SVG adds the following
 * capabilities:
 *
 *  - Mouse panning
 *  - Mouse zooming (using the wheel)
 *  - Object dragging
 *
 * You can configure the behaviour of the pan/zoom/drag with the variables
 * listed in the CONFIGURATION section of this file.
 *
 * Known issues:
 *
 *  - Zooming (while panning) on Safari has still some issues
 *
 * Releases:
 *
 * 1.2.2, Tue Aug 30 17:21:56 CEST 2011, Andrea Leofreddi
 *	- Fixed viewBox on root tag (#7)
 *	- Improved zoom speed (#2)
 *
 * 1.2.1, Mon Jul  4 00:33:18 CEST 2011, Andrea Leofreddi
 *	- Fixed a regression with mouse wheel (now working on Firefox 5)
 *	- Working with viewBox attribute (#4)
 *	- Added "use strict;" and fixed resulting warnings (#5)
 *	- Added configuration variables, dragging is disabled by default (#3)
 *
 * 1.2, Sat Mar 20 08:42:50 GMT 2010, Zeng Xiaohui
 *	Fixed a bug with browser mouse handler interaction
 *
 * 1.1, Wed Feb  3 17:39:33 GMT 2010, Zeng Xiaohui
 *	Updated the zoom code to support the mouse wheel on Safari/Chrome
 *
 * 1.0, Andrea Leofreddi
 *	First release
 *
 * This code is licensed under the following BSD license:
 *
 * Copyright 2009-2017 Andrea Leofreddi <a.leofreddi@vleo.net>. All rights reserved.
 *
 * Redistribution and use in source and binary forms, with or without modification, are
 * permitted provided that the following conditions are met:
 *
 *    1. Redistributions of source code must retain the above copyright
 *       notice, this list of conditions and the following disclaimer.
 *    2. Redistributions in binary form must reproduce the above copyright
 *       notice, this list of conditions and the following disclaimer in the
 *       documentation and/or other materials provided with the distribution.
 *    3. Neither the name of the copyright holder nor the names of its
 *       contributors may be used to endorse or promote products derived from
 *       this software without specific prior written permission.
 *
 * THIS SOFTWARE IS PROVIDED BY COPYRIGHT HOLDERS AND CONTRIBUTORS ''AS IS'' AND ANY EXPRESS
 * OR IMPLIED WARRANTIES, INCLUDING, BUT NOT LIMITED TO, THE IMPLIED WARRANTIES OF MERCHANTABILITY
 * AND FITNESS FOR A PARTICULAR PURPOSE ARE DISCLAIMED. IN NO EVENT SHALL COPYRIGHT HOLDERS OR
 * CONTRIBUTORS BE LIABLE FOR ANY DIRECT, INDIRECT, INCIDENTAL, SPECIAL, EXEMPLARY, OR
 * CONSEQUENTIAL DAMAGES (INCLUDING, BUT NOT LIMITED TO, PROCUREMENT OF SUBSTITUTE GOODS OR
 * SERVICES; LOSS OF USE, DATA, OR PROFITS; OR BUSINESS INTERRUPTION) HOWEVER CAUSED AND ON
 * ANY THEORY OF LIABILITY, WHETHER IN CONTRACT, STRICT LIABILITY, OR TORT (INCLUDING
 * NEGLIGENCE OR OTHERWISE) ARISING IN ANY WAY OUT OF THE USE OF THIS SOFTWARE, EVEN IF
 * ADVISED OF THE POSSIBILITY OF SUCH DAMAGE.
 *
 * The views and conclusions contained in the software and documentation are those of the
 * authors and should not be interpreted as representing official policies, either expressed
 * or implied, of Andrea Leofreddi.
 */

"use strict";

/// CONFIGURATION
/// ====>

var enablePan = 1; // 1 or 0: enable or disable panning (default enabled)
var enableZoom = 1; // 1 or 0: enable or disable zooming (default enabled)
var enableDrag = 0; // 1 or 0: enable or disable dragging (default disabled)
var zoomScale = 0.2; // Zoom sensitivity

/// <====
/// END OF CONFIGURATION

var root = document.documentElement;

var state = 'none', svgRoot = null, stateTarget, stateOrigin, stateTf;

setupHandlers(root);

/**
 * Register handlers
 */
function setupHandlers(root){
	setAttributes(root, {
		"onmouseup" : "handleMouseUp(evt)",
		"onmousedown" : "handleMouseDown(evt)",
		"onmousemove" : "handleMouseMove(evt)",
		//"onmouseout" : "handleMouseUp(evt)", // Decomment this to stop the pan functionality when dragging out of the SVG element
	});

	if(navigator.userAgent.toLowerCase().indexOf('webkit') >= 0)
		window.addEventListener('mousewheel', handleMouseWheel, false); // Chrome/Safari
	else
		window.addEventListener('DOMMouseScroll', handleMouseWheel, false); // Others
}

/**
 * Retrieves the root element for SVG manipulation. The element is then cached into the svgRoot global variable.
 */
function getRoot(root) {
	if(svgRoot == null) {
		var r = root.getElementById("viewport") ? root.getElementById("viewport") : root.documentElement, t = r;

		while(t != root) {
			if(t.getAttribute("viewBox")) {
				setCTM(r, t.getCTM());

				t.removeAttribute("viewBox");
			}

			t = t.parentNode;
		}

		svgRoot = r;
	}

	return svgRoot;
}

/**
 * Instance an SVGPoint object with given event coordinates.
 */
function getEventPoint(evt) {
	var p = root.createSVGPoint();

	p.x = evt.clientX;
	p.y = evt.clientY;

	return p;
}

/**
 * Sets the current transform matrix of an element.
 */
function setCTM(element, matrix) {
	var s = "matrix(" + matrix.a + "," + matrix.b + "," + matrix.c + "," + matrix.d + "," + matrix.e + "," + matrix.f + ")";

	element.setAttribute("transform", s);
}

/**
 * Dumps a matrix to a string (useful for debug).
 */
function dumpMatrix(matrix) {
	var s = "[ " + matrix.a + ", " + matrix.c + ", " + matrix.e + "\n  " + matrix.b + ", " + matrix.d + ", " + matrix.f + "\n  0, 0, 1 ]";

	return s;
}

/**
 * Sets attributes of an element.
 */
function setAttributes(element, attributes){
	for (var i in attributes)
		element.setAttributeNS(null, i, attributes[i]);
}

/**
 * Handle mouse wheel event.
 */
function handleMouseWheel(evt) {
	if(!enableZoom)
		return;

	if(evt.preventDefault)
		evt.preventDefault();

	evt.returnValue = false;

	var svgDoc = evt.target.ownerDocument;

	var delta;

	if(evt.wheelDelta)
		delta = evt.wheelDelta / 360; // Chrome/Safari
	else
		delta = evt.detail / -9; // Mozilla

	var z = Math.pow(1 + zoomScale, delta);

	var g = getRoot(svgDoc);
	
	var p = getEventPoint(evt);

	p = p.matrixTransform(g.getCTM().inverse());

	// Compute new scale matrix in current mouse position
	var k = root.createSVGMatrix().translate(p.x, p.y).scale(z).translate(-p.x, -p.y);

        setCTM(g, g.getCTM().multiply(k));

	if(typeof(stateTf) == "undefined")
		stateTf = g.getCTM().inverse();

	stateTf = stateTf.multiply(k.inverse());
}

/**
 * Handle mouse move event.
 */
function handleMouseMove(evt) {
	if(evt.preventDefault)
		evt.preventDefault();

	evt.returnValue = false;

	var svgDoc = evt.target.ownerDocument;

	var g = getRoot(svgDoc);

	if(state == 'pan' && enablePan) {
		// Pan mode
		var p = getEventPoint(evt).matrixTransform(stateTf);

		setCTM(g, stateTf.inverse().translate(p.x - stateOrigin.x, p.y - stateOrigin.y));
	} else if(state == 'drag' && enableDrag) {
		// Drag mode
		var p = getEventPoint(evt).matrixTransform(g.getCTM().inverse());

		setCTM(stateTarget, root.createSVGMatrix().translate(p.x - stateOrigin.x, p.y - stateOrigin.y).multiply(g.getCTM().inverse()).multiply(stateTarget.getCTM()));

		stateOrigin = p;
	}
}

/**
 * Handle click event.
 */
function handleMouseDown(evt) {
	if(evt.preventDefault)
		evt.preventDefault();

	evt.returnValue = false;

	var svgDoc = evt.target.ownerDocument;

	var g = getRoot(svgDoc);

	if(
		evt.target.tagName == "svg"
		|| !enableDrag // Pan anyway when drag is disabled and the user clicked on an element
	) {
		// Pan mode
		state = 'pan';

		stateTf = g.getCTM().inverse();

		stateOrigin = getEventPoint(evt).matrixTransform(stateTf);
	} else {
		// Drag mode
		state = 'drag';

		stateTarget = evt.target;

		stateTf = g.getCTM().inverse();

		stateOrigin = getEventPoint(evt).matrixTransform(stateTf);
	}
}

/**
 * Handle mouse button release event.
 */
function handleMouseUp(evt) {
	if(evt.preventDefault)
		evt.preventDefault();

	evt.returnValue = false;

	var svgDoc = evt.target.ownerDocument;

	if(state == 'pan' || state == 'drag') {
		// Quit pan mode
		state = '';
	}
}
]]></script><g id="viewport" transform="scale(0.5,0.5) translate(0,0)"><g id="graph0" class="graph" transform="scale(1 1) rotate(0) translate(4 1291)">
<title>unnamed</title>
<polygon fill="white" stroke="none" points="-4,4 -4,-1291 902,-1291 902,4 -4,4"/>
<g id="clust1" class="cluster">
<title>cluster_L</title>
<polygon fill="none" stroke="black" points="8,-1146 8,-1279 452,-1279 452,-1146 8,-1146"/>
</g>
<!-- Type: alloc_space -->
<g id="node1" class="node">
<title>Type: alloc_space</title>
<polygon fill="#f8f8f8" stroke="black" points="444,-1271 16,-1271 16,-1154 444,-1154 444,-1271"/>
<text text-anchor="start" x="24" y="-1254.2" font-family="Times,serif" font-size="16.00">Type: alloc_space</text>
<text text-anchor="start" x="24" y="-1236.2" font-family="Times,serif" font-size="16.00">Time: Nov 15, 2022 at 6:38am (EST)</text>
<text text-anchor="start" x="24" y="-1218.2" font-family="Times,serif" font-size="16.00">Showing nodes accounting for 5.03GB, 99.87% of 5.04GB total</text>
<text text-anchor="start" x="24" y="-1200.2" font-family="Times,serif" font-size="16.00">Dropped 22 nodes (cum &lt;= 0.03GB)</text>
<text text-anchor="start" x="24" y="-1163.2" font-family="Times,serif" font-size="16.00">See https://git.io/JfYMW for how to read the graph</text>
</g>
<!-- N1 -->
<g id="node1" class="node">
<title>N1</title>
<g id="a_node1"><a xlink:title="encoding/csv.(*Reader).ReadAll (3.24GB)">
<polygon fill="#edd8d5" stroke="#b21600" points="585.5,-493 370.5,-493 370.5,-355 585.5,-355 585.5,-493"/>
<text text-anchor="middle" x="478" y="-469.8" font-family="Times,serif" font-size="24.00">csv</text>
<text text-anchor="middle" x="478" y="-443.8" font-family="Times,serif" font-size="24.00">(*Reader)</text>
<text text-anchor="middle" x="478" y="-417.8" font-family="Times,serif" font-size="24.00">ReadAll</text>
<text text-anchor="middle" x="478" y="-391.8" font-family="Times,serif" font-size="24.00">2.02GB (40.15%)</text>
<text text-anchor="middle" x="478" y="-365.8" font-family="Times,serif" font-size="24.00">of 3.24GB (64.39%)</text>
</a>
</g>
</g>
<!-- NN1_0 -->
<g id="NN1_0" class="node">
<title>NN1_0</title>
<g id="a_NN1_0"><a xlink:title="0.71GB">
<polygon fill="#f8f8f8" stroke="black" points="361,-289 311,-289 307,-285 307,-253 357,-253 361,-257 361,-289"/>
<polyline fill="none" stroke="black" points="357,-285 307,-285"/>
<polyline fill="none" stroke="black" points="357,-285 357,-253"/>
<polyline fill="none" stroke="black" points="357,-285 361,-289"/>
<text text-anchor="middle" x="334" y="-269.1" font-family="Times,serif" font-size="8.00">72kB</text>
</a>
</g>
</g>
<!-- N1&#45;&gt;NN1_0 -->
<g id="edge1" class="edge">
<title>N1&#45;&gt;NN1_0</title>
<g id="a_edge1"><a xlink:title="0.71GB">
<path fill="none" stroke="black" d="M381.29,-354.76C375.47,-349.06 369.98,-343.12 365,-337 356.06,-326.01 348.96,-312.01 343.83,-299.82"/>
<polygon fill="black" stroke="black" points="347.15,-298.7 340.22,-290.69 340.64,-301.27 347.15,-298.7"/>
</a>
</g>
<g id="a_edge1&#45;label"><a xlink:title="0.71GB">
<text text-anchor="middle" x="388.5" y="-318.3" font-family="Times,serif" font-size="14.00"> 0.71GB</text>
</a>
</g>
</g>
<!-- NN1_1 -->
<g id="NN1_1" class="node">
<title>NN1_1</title>
<g id="a_NN1_1"><a xlink:title="0.50GB">
<polygon fill="#f8f8f8" stroke="black" points="433,-289 383,-289 379,-285 379,-253 429,-253 433,-257 433,-289"/>
<polyline fill="none" stroke="black" points="429,-285 379,-285"/>
<polyline fill="none" stroke="black" points="429,-285 429,-253"/>
<polyline fill="none" stroke="black" points="429,-285 433,-289"/>
<text text-anchor="middle" x="406" y="-269.1" font-family="Times,serif" font-size="8.00">48kB</text>
</a>
</g>
</g>
<!-- N1&#45;&gt;NN1_1 -->
<g id="edge2" class="edge">
<title>N1&#45;&gt;NN1_1</title>
<g id="a_edge2"><a xlink:title="0.50GB">
<path fill="none" stroke="black" d="M435.69,-354.72C432.59,-348.81 429.64,-342.85 427,-337 421.73,-325.33 417.17,-311.93 413.66,-300.35"/>
<polygon fill="black" stroke="black" points="417.08,-299.58 410.93,-290.95 410.36,-301.53 417.08,-299.58"/>
</a>
</g>
<g id="a_edge2&#45;label"><a xlink:title="0.50GB">
<text text-anchor="middle" x="450.5" y="-318.3" font-family="Times,serif" font-size="14.00"> 0.50GB</text>
</a>
</g>
</g>
<!-- NN1_2 -->
<g id="NN1_2" class="node">
<title>NN1_2</title>
<g id="a_NN1_2"><a xlink:title="0.45GB">
<polygon fill="#f8f8f8" stroke="black" points="505,-289 455,-289 451,-285 451,-253 501,-253 505,-257 505,-289"/>
<polyline fill="none" stroke="black" points="501,-285 451,-285"/>
<polyline fill="none" stroke="black" points="501,-285 501,-253"/>
<polyline fill="none" stroke="black" points="501,-285 505,-289"/>
<text text-anchor="middle" x="478" y="-269.1" font-family="Times,serif" font-size="8.00">16B..20kB</text>
</a>
</g>
</g>
<!-- N1&#45;&gt;NN1_2 -->
<g id="edge3" class="edge">
<title>N1&#45;&gt;NN1_2</title>
<g id="a_edge3"><a xlink:title="0.45GB">
<path fill="none" stroke="black" d="M478,-354.57C478,-335.6 478,-316.04 478,-300.72"/>
<polygon fill="black" stroke="black" points="481.5,-300.95 478,-290.95 474.5,-300.95 481.5,-300.95"/>
</a>
</g>
<g id="a_edge3&#45;label"><a xlink:title="0.45GB">
<text text-anchor="middle" x="501.5" y="-318.3" font-family="Times,serif" font-size="14.00"> 0.45GB</text>
</a>
</g>
</g>
<!-- NN1_3 -->
<g id="NN1_3" class="node">
<title>NN1_3</title>
<g id="a_NN1_3"><a xlink:title="0.33GB">
<polygon fill="#f8f8f8" stroke="black" points="577,-289 527,-289 523,-285 523,-253 573,-253 577,-257 577,-289"/>
<polyline fill="none" stroke="black" points="573,-285 523,-285"/>
<polyline fill="none" stroke="black" points="573,-285 573,-253"/>
<polyline fill="none" stroke="black" points="573,-285 577,-289"/>
<text text-anchor="middle" x="550" y="-269.1" font-family="Times,serif" font-size="8.00">32kB</text>
</a>
</g>
</g>
<!-- N1&#45;&gt;NN1_3 -->
<g id="edge4" class="edge">
<title>N1&#45;&gt;NN1_3</title>
<g id="a_edge4"><a xlink:title="0.33GB">
<path fill="none" stroke="black" d="M519.36,-354.64C522.43,-348.75 525.36,-342.82 528,-337 533.32,-325.29 538.07,-311.89 541.78,-300.31"/>
<polygon fill="black" stroke="black" points="545.07,-301.5 544.68,-290.92 538.39,-299.44 545.07,-301.5"/>
</a>
</g>
<g id="a_edge4&#45;label"><a xlink:title="0.33GB">
<text text-anchor="middle" x="563.5" y="-318.3" font-family="Times,serif" font-size="14.00"> 0.33GB</text>
</a>
</g>
</g>
<!-- N5 -->
<g id="node5" class="node">
<title>N5</title>
<g id="a_node5"><a xlink:title="encoding/csv.(*Reader).readRecord (1.22GB)">
<polygon fill="#edddd5" stroke="#b23d00" points="696,-187 530,-187 530,-87 696,-87 696,-187"/>
<text text-anchor="middle" x="613" y="-166.2" font-family="Times,serif" font-size="21.00">csv</text>
<text text-anchor="middle" x="613" y="-143.2" font-family="Times,serif" font-size="21.00">(*Reader)</text>
<text text-anchor="middle" x="613" y="-120.2" font-family="Times,serif" font-size="21.00">readRecord</text>
<text text-anchor="middle" x="613" y="-97.2" font-family="Times,serif" font-size="21.00">1.22GB (24.24%)</text>
</a>
</g>
</g>
<!-- N1&#45;&gt;N5 -->
<g id="edge21" class="edge">
<title>N1&#45;&gt;N5</title>
<g id="a_edge21"><a xlink:title="encoding/csv.(*Reader).ReadAll &#45;&gt; encoding/csv.(*Reader).readRecord (1.22GB)">
<path fill="none" stroke="#b23d00" stroke-width="2" d="M578.67,-354.74C583.3,-349.14 587.48,-343.22 591,-337 614.41,-295.65 619.09,-241.72 618.37,-200.43"/>
<polygon fill="#b23d00" stroke="#b23d00" stroke-width="2" points="621.87,-200.41 618.06,-190.52 614.88,-200.63 621.87,-200.41"/>
</a>
</g>
<g id="a_edge21&#45;label"><a xlink:title="encoding/csv.(*Reader).ReadAll &#45;&gt; encoding/csv.(*Reader).readRecord (1.22GB)">
<text text-anchor="middle" x="638.5" y="-267.3" font-family="Times,serif" font-size="14.00"> 1.22GB</text>
</a>
</g>
</g>
<!-- N2 -->
<g id="node2" class="node">
<title>N2</title>
<g id="a_node2"><a xlink:title="github.com/roca/GO/tree/staging/pragprog/PowerfullCliApps/performance/colStats.run (5.03GB)">
<polygon fill="#edd5d5" stroke="#b20000" points="597,-921 417,-921 417,-825 597,-825 597,-921"/>
<text text-anchor="middle" x="507" y="-901" font-family="Times,serif" font-size="20.00">colStats</text>
<text text-anchor="middle" x="507" y="-879" font-family="Times,serif" font-size="20.00">run</text>
<text text-anchor="middle" x="507" y="-857" font-family="Times,serif" font-size="20.00">1.13GB (22.35%)</text>
<text text-anchor="middle" x="507" y="-835" font-family="Times,serif" font-size="20.00">of 5.03GB (99.92%)</text>
</a>
</g>
</g>
<!-- NN2_0 -->
<g id="NN2_0" class="node">
<title>NN2_0</title>
<g id="a_NN2_0"><a xlink:title="0.46GB">
<polygon fill="#f8f8f8" stroke="black" points="389.5,-774 330.5,-774 326.5,-770 326.5,-738 385.5,-738 389.5,-742 389.5,-774"/>
<polyline fill="none" stroke="black" points="385.5,-770 326.5,-770"/>
<polyline fill="none" stroke="black" points="385.5,-770 385.5,-738"/>
<polyline fill="none" stroke="black" points="385.5,-770 389.5,-774"/>
<text text-anchor="middle" x="358" y="-754.1" font-family="Times,serif" font-size="8.00">16B..10.84MB</text>
</a>
</g>
</g>
<!-- N2&#45;&gt;NN2_0 -->
<g id="edge5" class="edge">
<title>N2&#45;&gt;NN2_0</title>
<g id="a_edge5"><a xlink:title="0.46GB">
<path fill="none" stroke="black" d="M420.74,-824.62C412.78,-819.05 405.06,-813.15 398,-807 390.05,-800.07 382.5,-791.41 376.14,-783.25"/>
<polygon fill="black" stroke="black" points="378.96,-781.18 370.18,-775.26 373.35,-785.37 378.96,-781.18"/>
</a>
</g>
<g id="a_edge5&#45;label"><a xlink:title="0.46GB">
<text text-anchor="middle" x="421.5" y="-795.8" font-family="Times,serif" font-size="14.00"> 0.46GB</text>
</a>
</g>
</g>
<!-- NN2_1 -->
<g id="NN2_1" class="node">
<title>NN2_1</title>
<g id="a_NN2_1"><a xlink:title="0.23GB">
<polygon fill="#f8f8f8" stroke="black" points="462,-774 412,-774 408,-770 408,-738 458,-738 462,-742 462,-774"/>
<polyline fill="none" stroke="black" points="458,-770 408,-770"/>
<polyline fill="none" stroke="black" points="458,-770 458,-738"/>
<polyline fill="none" stroke="black" points="458,-770 462,-774"/>
<text text-anchor="middle" x="435" y="-754.1" font-family="Times,serif" font-size="8.00">21.18MB</text>
</a>
</g>
</g>
<!-- N2&#45;&gt;NN2_1 -->
<g id="edge6" class="edge">
<title>N2&#45;&gt;NN2_1</title>
<g id="a_edge6"><a xlink:title="0.23GB">
<path fill="none" stroke="black" d="M467.62,-824.75C463.46,-818.93 459.49,-812.94 456,-807 451.94,-800.1 448.27,-792.27 445.16,-784.89"/>
<polygon fill="black" stroke="black" points="448.42,-783.62 441.48,-775.61 441.92,-786.2 448.42,-783.62"/>
</a>
</g>
<g id="a_edge6&#45;label"><a xlink:title="0.23GB">
<text text-anchor="middle" x="479.5" y="-795.8" font-family="Times,serif" font-size="14.00"> 0.23GB</text>
</a>
</g>
</g>
<!-- NN2_2 -->
<g id="NN2_2" class="node">
<title>NN2_2</title>
<g id="a_NN2_2"><a xlink:title="0.18GB">
<polygon fill="#f8f8f8" stroke="black" points="534,-774 484,-774 480,-770 480,-738 530,-738 534,-742 534,-774"/>
<polyline fill="none" stroke="black" points="530,-770 480,-770"/>
<polyline fill="none" stroke="black" points="530,-770 530,-738"/>
<polyline fill="none" stroke="black" points="530,-770 534,-774"/>
<text text-anchor="middle" x="507" y="-754.1" font-family="Times,serif" font-size="8.00">16.94MB</text>
</a>
</g>
</g>
<!-- N2&#45;&gt;NN2_2 -->
<g id="edge7" class="edge">
<title>N2&#45;&gt;NN2_2</title>
<g id="a_edge7"><a xlink:title="0.18GB">
<path fill="none" stroke="black" d="M507,-824.56C507,-811.34 507,-797.38 507,-785.6"/>
<polygon fill="black" stroke="black" points="510.5,-785.76 507,-775.76 503.5,-785.76 510.5,-785.76"/>
</a>
</g>
<g id="a_edge7&#45;label"><a xlink:title="0.18GB">
<text text-anchor="middle" x="530.5" y="-795.8" font-family="Times,serif" font-size="14.00"> 0.18GB</text>
</a>
</g>
</g>
<!-- NN2_3 -->
<g id="NN2_3" class="node">
<title>NN2_3</title>
<g id="a_NN2_3"><a xlink:title="0.15GB">
<polygon fill="#f8f8f8" stroke="black" points="606,-774 556,-774 552,-770 552,-738 602,-738 606,-742 606,-774"/>
<polyline fill="none" stroke="black" points="602,-770 552,-770"/>
<polyline fill="none" stroke="black" points="602,-770 602,-738"/>
<polyline fill="none" stroke="black" points="602,-770 606,-774"/>
<text text-anchor="middle" x="579" y="-754.1" font-family="Times,serif" font-size="8.00">13.55MB</text>
</a>
</g>
</g>
<!-- N2&#45;&gt;NN2_3 -->
<g id="edge8" class="edge">
<title>N2&#45;&gt;NN2_3</title>
<g id="a_edge8"><a xlink:title="0.15GB">
<path fill="none" stroke="black" d="M545.48,-824.64C549.58,-818.84 553.52,-812.88 557,-807 561.16,-799.98 565.01,-792.04 568.28,-784.58"/>
<polygon fill="black" stroke="black" points="571.42,-786.14 572.06,-775.56 564.97,-783.44 571.42,-786.14"/>
</a>
</g>
<g id="a_edge8&#45;label"><a xlink:title="0.15GB">
<text text-anchor="middle" x="588.5" y="-795.8" font-family="Times,serif" font-size="14.00"> 0.15GB</text>
</a>
</g>
</g>
<!-- N4 -->
<g id="node4" class="node">
<title>N4</title>
<g id="a_node4"><a xlink:title="github.com/roca/GO/tree/staging/pragprog/PowerfullCliApps/performance/colStats.csv2float (3.91GB)">
<polygon fill="#edd7d5" stroke="#b20d00" points="720,-701 564,-701 564,-617 720,-617 720,-701"/>
<text text-anchor="middle" x="642" y="-683.4" font-family="Times,serif" font-size="17.00">colStats</text>
<text text-anchor="middle" x="642" y="-664.4" font-family="Times,serif" font-size="17.00">csv2float</text>
<text text-anchor="middle" x="642" y="-645.4" font-family="Times,serif" font-size="17.00">0.62GB (12.29%)</text>
<text text-anchor="middle" x="642" y="-626.4" font-family="Times,serif" font-size="17.00">of 3.91GB (77.53%)</text>
</a>
</g>
</g>
<!-- N2&#45;&gt;N4 -->
<g id="edge19" class="edge">
<title>N2&#45;&gt;N4</title>
<g id="a_edge19"><a xlink:title="github.com/roca/GO/tree/staging/pragprog/PowerfullCliApps/performance/colStats.run &#45;&gt; github.com/roca/GO/tree/staging/pragprog/PowerfullCliApps/performance/colStats.csv2float (3.91GB)">
<path fill="none" stroke="#b20d00" stroke-width="4" d="M597.4,-827.42C604.43,-821.32 610.81,-814.53 616,-807 633.93,-781.02 640.68,-746.5 642.84,-717.43"/>
<polygon fill="#b20d00" stroke="#b20d00" stroke-width="4" points="646.33,-717.7 643.32,-707.55 639.34,-717.36 646.33,-717.7"/>
</a>
</g>
<g id="a_edge19&#45;label"><a xlink:title="github.com/roca/GO/tree/staging/pragprog/PowerfullCliApps/performance/colStats.run &#45;&gt; github.com/roca/GO/tree/staging/pragprog/PowerfullCliApps/performance/colStats.csv2float (3.91GB)">
<text text-anchor="middle" x="663.5" y="-752.3" font-family="Times,serif" font-size="14.00"> 3.91GB</text>
</a>
</g>
</g>
<!-- N3 -->
<g id="node3" class="node">
<title>N3</title>
<g id="a_node3"><a xlink:title="testing.(*B).launch (4.57GB)">
<polygon fill="#edd6d5" stroke="#b20500" points="551.5,-1234.5 462.5,-1234.5 462.5,-1190.5 551.5,-1190.5 551.5,-1234.5"/>
<text text-anchor="middle" x="507" y="-1224.1" font-family="Times,serif" font-size="8.00">testing</text>
<text text-anchor="middle" x="507" y="-1215.1" font-family="Times,serif" font-size="8.00">(*B)</text>
<text text-anchor="middle" x="507" y="-1206.1" font-family="Times,serif" font-size="8.00">launch</text>
<text text-anchor="middle" x="507" y="-1197.1" font-family="Times,serif" font-size="8.00">0 of 4.57GB (90.69%)</text>
</a>
</g>
</g>
<!-- N6 -->
<g id="node6" class="node">
<title>N6</title>
<g id="a_node6"><a xlink:title="testing.(*B).runN (5.03GB)">
<polygon fill="#edd5d5" stroke="#b20000" points="551.5,-1103 462.5,-1103 462.5,-1059 551.5,-1059 551.5,-1103"/>
<text text-anchor="middle" x="507" y="-1092.6" font-family="Times,serif" font-size="8.00">testing</text>
<text text-anchor="middle" x="507" y="-1083.6" font-family="Times,serif" font-size="8.00">(*B)</text>
<text text-anchor="middle" x="507" y="-1074.6" font-family="Times,serif" font-size="8.00">runN</text>
<text text-anchor="middle" x="507" y="-1065.6" font-family="Times,serif" font-size="8.00">0 of 5.03GB (99.92%)</text>
</a>
</g>
</g>
<!-- N3&#45;&gt;N6 -->
<g id="edge18" class="edge">
<title>N3&#45;&gt;N6</title>
<g id="a_edge18"><a xlink:title="testing.(*B).launch &#45;&gt; testing.(*B).runN (4.57GB)">
<path fill="none" stroke="#b20500" stroke-width="5" d="M507,-1190.12C507,-1171 507,-1142.54 507,-1119.62"/>
<polygon fill="#b20500" stroke="#b20500" stroke-width="5" points="511.38,-1119.65 507,-1109.65 502.63,-1119.65 511.38,-1119.65"/>
</a>
</g>
<g id="a_edge18&#45;label"><a xlink:title="testing.(*B).launch &#45;&gt; testing.(*B).runN (4.57GB)">
<text text-anchor="middle" x="530.5" y="-1124.8" font-family="Times,serif" font-size="14.00"> 4.57GB</text>
</a>
</g>
</g>
<!-- N4&#45;&gt;N1 -->
<g id="edge20" class="edge">
<title>N4&#45;&gt;N1</title>
<g id="a_edge20"><a xlink:title="github.com/roca/GO/tree/staging/pragprog/PowerfullCliApps/performance/colStats.csv2float &#45;&gt; encoding/csv.(*Reader).ReadAll (3.24GB)">
<path fill="none" stroke="#b21600" stroke-width="4" d="M563.77,-630C534.71,-615.51 504.57,-594.69 487,-566 476.64,-549.08 471.93,-528.78 470.33,-508.92"/>
<polygon fill="#b21600" stroke="#b21600" stroke-width="4" points="473.84,-509.05 469.92,-499.21 466.84,-509.35 473.84,-509.05"/>
</a>
</g>
<g id="a_edge20&#45;label"><a xlink:title="github.com/roca/GO/tree/staging/pragprog/PowerfullCliApps/performance/colStats.csv2float &#45;&gt; encoding/csv.(*Reader).ReadAll (3.24GB)">
<text text-anchor="middle" x="510.5" y="-544.3" font-family="Times,serif" font-size="14.00"> 3.24GB</text>
</a>
</g>
</g>
<!-- NN4_0 -->
<g id="NN4_0" class="node">
<title>NN4_0</title>
<g id="a_NN4_0"><a xlink:title="0.20GB">
<polygon fill="#f8f8f8" stroke="black" points="597,-566 547,-566 543,-562 543,-530 593,-530 597,-534 597,-566"/>
<polyline fill="none" stroke="black" points="593,-562 543,-562"/>
<polyline fill="none" stroke="black" points="593,-562 593,-530"/>
<polyline fill="none" stroke="black" points="593,-562 597,-566"/>
<text text-anchor="middle" x="570" y="-546.1" font-family="Times,serif" font-size="8.00">20kB..72kB</text>
</a>
</g>
</g>
<!-- N4&#45;&gt;NN4_0 -->
<g id="edge9" class="edge">
<title>N4&#45;&gt;NN4_0</title>
<g id="a_edge9"><a xlink:title="0.20GB">
<path fill="none" stroke="black" d="M603.53,-616.71C599.02,-610.97 594.71,-604.98 591,-599 586.78,-592.2 583.05,-584.4 579.95,-577.02"/>
<polygon fill="black" stroke="black" points="583.21,-575.75 576.29,-567.73 576.69,-578.31 583.21,-575.75"/>
</a>
</g>
<g id="a_edge9&#45;label"><a xlink:title="0.20GB">
<text text-anchor="middle" x="614.5" y="-587.8" font-family="Times,serif" font-size="14.00"> 0.20GB</text>
</a>
</g>
</g>
<!-- NN4_1 -->
<g id="NN4_1" class="node">
<title>NN4_1</title>
<g id="a_NN4_1"><a xlink:title="0.14GB">
<polygon fill="#f8f8f8" stroke="black" points="669,-566 619,-566 615,-562 615,-530 665,-530 669,-534 669,-566"/>
<polyline fill="none" stroke="black" points="665,-562 615,-562"/>
<polyline fill="none" stroke="black" points="665,-562 665,-530"/>
<polyline fill="none" stroke="black" points="665,-562 669,-566"/>
<text text-anchor="middle" x="642" y="-546.1" font-family="Times,serif" font-size="8.00">12kB..14kB</text>
</a>
</g>
</g>
<!-- N4&#45;&gt;NN4_1 -->
<g id="edge10" class="edge">
<title>N4&#45;&gt;NN4_1</title>
<g id="a_edge10"><a xlink:title="0.14GB">
<path fill="none" stroke="black" d="M642,-616.79C642,-603.68 642,-589.47 642,-577.47"/>
<polygon fill="black" stroke="black" points="645.5,-577.84 642,-567.84 638.5,-577.84 645.5,-577.84"/>
</a>
</g>
<g id="a_edge10&#45;label"><a xlink:title="0.14GB">
<text text-anchor="middle" x="665.5" y="-587.8" font-family="Times,serif" font-size="14.00"> 0.14GB</text>
</a>
</g>
</g>
<!-- NN4_2 -->
<g id="NN4_2" class="node">
<title>NN4_2</title>
<g id="a_NN4_2"><a xlink:title="0.14GB">
<polygon fill="#f8f8f8" stroke="black" points="743,-566 691,-566 687,-562 687,-530 739,-530 743,-534 743,-566"/>
<polyline fill="none" stroke="black" points="739,-562 687,-562"/>
<polyline fill="none" stroke="black" points="739,-562 739,-530"/>
<polyline fill="none" stroke="black" points="739,-562 743,-566"/>
<text text-anchor="middle" x="715" y="-546.1" font-family="Times,serif" font-size="8.00">16B..6.62kB</text>
</a>
</g>
</g>
<!-- N4&#45;&gt;NN4_2 -->
<g id="edge11" class="edge">
<title>N4&#45;&gt;NN4_2</title>
<g id="a_edge11"><a xlink:title="0.14GB">
<path fill="none" stroke="black" d="M680.38,-616.65C684.9,-610.92 689.24,-604.95 693,-599 697.36,-592.11 701.27,-584.2 704.55,-576.74"/>
<polygon fill="black" stroke="black" points="707.7,-578.28 708.29,-567.7 701.23,-575.6 707.7,-578.28"/>
</a>
</g>
<g id="a_edge11&#45;label"><a xlink:title="0.14GB">
<text text-anchor="middle" x="723.5" y="-587.8" font-family="Times,serif" font-size="14.00"> 0.14GB</text>
</a>
</g>
</g>
<!-- NN4_3 -->
<g id="NN4_3" class="node">
<title>NN4_3</title>
<g id="a_NN4_3"><a xlink:title="0.10GB">
<polygon fill="#f8f8f8" stroke="black" points="815,-566 765,-566 761,-562 761,-530 811,-530 815,-534 815,-566"/>
<polyline fill="none" stroke="black" points="811,-562 761,-562"/>
<polyline fill="none" stroke="black" points="811,-562 811,-530"/>
<polyline fill="none" stroke="black" points="811,-562 815,-566"/>
<text text-anchor="middle" x="788" y="-546.1" font-family="Times,serif" font-size="8.00">10kB</text>
</a>
</g>
</g>
<!-- N4&#45;&gt;NN4_3 -->
<g id="edge12" class="edge">
<title>N4&#45;&gt;NN4_3</title>
<g id="a_edge12"><a xlink:title="0.10GB">
<path fill="none" stroke="black" d="M720.41,-621.05C731.2,-614.43 741.74,-607.04 751,-599 758.65,-592.36 765.67,-583.86 771.48,-575.77"/>
<polygon fill="black" stroke="black" points="774.37,-577.74 777.09,-567.5 768.58,-573.81 774.37,-577.74"/>
</a>
</g>
<g id="a_edge12&#45;label"><a xlink:title="0.10GB">
<text text-anchor="middle" x="788.5" y="-587.8" font-family="Times,serif" font-size="14.00"> 0.10GB</text>
</a>
</g>
</g>
<!-- N10 -->
<g id="node10" class="node">
<title>N10</title>
<g id="a_node10"><a xlink:title="encoding/csv.NewReader (0.04GB)">
<polygon fill="#edecec" stroke="#b2b0aa" points="893.5,-442 808.5,-442 808.5,-406 893.5,-406 893.5,-442"/>
<text text-anchor="middle" x="851" y="-431.1" font-family="Times,serif" font-size="8.00">csv</text>
<text text-anchor="middle" x="851" y="-422.1" font-family="Times,serif" font-size="8.00">NewReader</text>
<text text-anchor="middle" x="851" y="-413.1" font-family="Times,serif" font-size="8.00">0 of 0.04GB (0.85%)</text>
</a>
</g>
</g>
<!-- N4&#45;&gt;N10 -->
<g id="edge25" class="edge">
<title>N4&#45;&gt;N10</title>
<g id="a_edge25"><a xlink:title="github.com/roca/GO/tree/staging/pragprog/PowerfullCliApps/performance/colStats.csv2float &#45;&gt; encoding/csv.NewReader (0.04GB)">
<path fill="none" stroke="#b2b0aa" d="M720.12,-648.55C753.94,-640.59 791.35,-625.95 816,-599 852.59,-558.99 855.42,-491.78 853.61,-453.66"/>
<polygon fill="#b2b0aa" stroke="#b2b0aa" points="857.11,-453.65 852.99,-443.89 850.13,-454.09 857.11,-453.65"/>
</a>
</g>
<g id="a_edge25&#45;label"><a xlink:title="github.com/roca/GO/tree/staging/pragprog/PowerfullCliApps/performance/colStats.csv2float &#45;&gt; encoding/csv.NewReader (0.04GB)">
<text text-anchor="middle" x="871.5" y="-551.8" font-family="Times,serif" font-size="14.00"> 0.04GB</text>
<text text-anchor="middle" x="871.5" y="-536.8" font-family="Times,serif" font-size="14.00"> (inline)</text>
</a>
</g>
</g>
<!-- NN5_0 -->
<g id="NN5_0" class="node">
<title>NN5_0</title>
<g id="a_NN5_0"><a xlink:title="0.81GB">
<polygon fill="#f8f8f8" stroke="black" points="604,-36 554,-36 550,-32 550,0 600,0 604,-4 604,-36"/>
<polyline fill="none" stroke="black" points="600,-32 550,-32"/>
<polyline fill="none" stroke="black" points="600,-32 600,0"/>
<polyline fill="none" stroke="black" points="600,-32 604,-36"/>
<text text-anchor="middle" x="577" y="-16.1" font-family="Times,serif" font-size="8.00">32B</text>
</a>
</g>
</g>
<!-- N5&#45;&gt;NN5_0 -->
<g id="edge13" class="edge">
<title>N5&#45;&gt;NN5_0</title>
<g id="a_edge13"><a xlink:title="0.81GB">
<path fill="none" stroke="black" d="M586.05,-86.73C583.66,-80.88 581.56,-74.89 580,-69 578.2,-62.21 577.24,-54.74 576.77,-47.68"/>
<polygon fill="black" stroke="black" points="580.27,-47.77 576.42,-37.9 573.28,-48.02 580.27,-47.77"/>
</a>
</g>
<g id="a_edge13&#45;label"><a xlink:title="0.81GB">
<text text-anchor="middle" x="603.5" y="-57.8" font-family="Times,serif" font-size="14.00"> 0.81GB</text>
</a>
</g>
</g>
<!-- NN5_1 -->
<g id="NN5_1" class="node">
<title>NN5_1</title>
<g id="a_NN5_1"><a xlink:title="0.41GB">
<polygon fill="#f8f8f8" stroke="black" points="676,-36 626,-36 622,-32 622,0 672,0 676,-4 676,-36"/>
<polyline fill="none" stroke="black" points="672,-32 622,-32"/>
<polyline fill="none" stroke="black" points="672,-32 672,0"/>
<polyline fill="none" stroke="black" points="672,-32 676,-36"/>
<text text-anchor="middle" x="649" y="-16.1" font-family="Times,serif" font-size="8.00">16B</text>
</a>
</g>
</g>
<!-- N5&#45;&gt;NN5_1 -->
<g id="edge14" class="edge">
<title>N5&#45;&gt;NN5_1</title>
<g id="a_edge14"><a xlink:title="0.41GB">
<path fill="none" stroke="black" d="M628.16,-86.72C632.28,-73.32 636.61,-59.27 640.25,-47.45"/>
<polygon fill="black" stroke="black" points="643.58,-48.53 643.17,-37.94 636.89,-46.47 643.58,-48.53"/>
</a>
</g>
<g id="a_edge14&#45;label"><a xlink:title="0.41GB">
<text text-anchor="middle" x="660.5" y="-57.8" font-family="Times,serif" font-size="14.00"> 0.41GB</text>
</a>
</g>
</g>
<!-- N11 -->
<g id="node11" class="node">
<title>N11</title>
<g id="a_node11"><a xlink:title="github.com/roca/GO/tree/staging/pragprog/PowerfullCliApps/performance/colStats.BenchmarkRun (5.03GB)">
<polygon fill="#edd5d5" stroke="#b20000" points="551.5,-1008 462.5,-1008 462.5,-972 551.5,-972 551.5,-1008"/>
<text text-anchor="middle" x="507" y="-997.1" font-family="Times,serif" font-size="8.00">colStats</text>
<text text-anchor="middle" x="507" y="-988.1" font-family="Times,serif" font-size="8.00">BenchmarkRun</text>
<text text-anchor="middle" x="507" y="-979.1" font-family="Times,serif" font-size="8.00">0 of 5.03GB (99.92%)</text>
</a>
</g>
</g>
<!-- N6&#45;&gt;N11 -->
<g id="edge17" class="edge">
<title>N6&#45;&gt;N11</title>
<g id="a_edge17"><a xlink:title="testing.(*B).runN &#45;&gt; github.com/roca/GO/tree/staging/pragprog/PowerfullCliApps/performance/colStats.BenchmarkRun (5.03GB)">
<path fill="none" stroke="#b20000" stroke-width="5" d="M507,-1058.91C507,-1048.55 507,-1035.82 507,-1024.19"/>
<polygon fill="#b20000" stroke="#b20000" stroke-width="5" points="511.38,-1024.59 507,-1014.59 502.63,-1024.59 511.38,-1024.59"/>
</a>
</g>
<g id="a_edge17&#45;label"><a xlink:title="testing.(*B).runN &#45;&gt; github.com/roca/GO/tree/staging/pragprog/PowerfullCliApps/performance/colStats.BenchmarkRun (5.03GB)">
<text text-anchor="middle" x="530.5" y="-1029.8" font-family="Times,serif" font-size="14.00"> 5.03GB</text>
</a>
</g>
</g>
<!-- N7 -->
<g id="node7" class="node">
<title>N7</title>
<g id="a_node7"><a xlink:title="testing.(*B).run1.func1 (0.47GB)">
<polygon fill="#ede7e2" stroke="#b28a60" points="654.5,-1239 569.5,-1239 569.5,-1186 654.5,-1186 654.5,-1239"/>
<text text-anchor="middle" x="612" y="-1228.6" font-family="Times,serif" font-size="8.00">testing</text>
<text text-anchor="middle" x="612" y="-1219.6" font-family="Times,serif" font-size="8.00">(*B)</text>
<text text-anchor="middle" x="612" y="-1210.6" font-family="Times,serif" font-size="8.00">run1</text>
<text text-anchor="middle" x="612" y="-1201.6" font-family="Times,serif" font-size="8.00">func1</text>
<text text-anchor="middle" x="612" y="-1192.6" font-family="Times,serif" font-size="8.00">0 of 0.47GB (9.23%)</text>
</a>
</g>
</g>
<!-- N7&#45;&gt;N6 -->
<g id="edge22" class="edge">
<title>N7&#45;&gt;N6</title>
<g id="a_edge22"><a xlink:title="testing.(*B).run1.func1 &#45;&gt; testing.(*B).runN (0.47GB)">
<path fill="none" stroke="#b28a60" d="M599.9,-1185.58C590.22,-1166.48 575.41,-1140.53 558,-1121 554.83,-1117.44 551.3,-1113.99 547.61,-1110.7"/>
<polygon fill="#b28a60" stroke="#b28a60" points="549.9,-1108.05 539.99,-1104.32 545.41,-1113.42 549.9,-1108.05"/>
</a>
</g>
<g id="a_edge22&#45;label"><a xlink:title="testing.(*B).run1.func1 &#45;&gt; testing.(*B).runN (0.47GB)">
<text text-anchor="middle" x="592.5" y="-1124.8" font-family="Times,serif" font-size="14.00"> 0.47GB</text>
</a>
</g>
</g>
<!-- N8 -->
<g id="node8" class="node">
<title>N8</title>
<g id="a_node8"><a xlink:title="bufio.NewReaderSize (0.04GB)">
<polygon fill="#edecec" stroke="#b2b0aa" points="896,-159 806,-159 806,-115 896,-115 896,-159"/>
<text text-anchor="middle" x="851" y="-146.2" font-family="Times,serif" font-size="11.00">bufio</text>
<text text-anchor="middle" x="851" y="-134.2" font-family="Times,serif" font-size="11.00">NewReaderSize</text>
<text text-anchor="middle" x="851" y="-122.2" font-family="Times,serif" font-size="11.00">0.04GB (0.85%)</text>
</a>
</g>
</g>
<!-- NN8_0 -->
<g id="NN8_0" class="node">
<title>NN8_0</title>
<g id="a_NN8_0"><a xlink:title="0.04GB">
<polygon fill="#f8f8f8" stroke="black" points="878,-36 828,-36 824,-32 824,0 874,0 878,-4 878,-36"/>
<polyline fill="none" stroke="black" points="874,-32 824,-32"/>
<polyline fill="none" stroke="black" points="874,-32 874,0"/>
<polyline fill="none" stroke="black" points="874,-32 878,-36"/>
<text text-anchor="middle" x="851" y="-16.1" font-family="Times,serif" font-size="8.00">4kB</text>
</a>
</g>
</g>
<!-- N8&#45;&gt;NN8_0 -->
<g id="edge15" class="edge">
<title>N8&#45;&gt;NN8_0</title>
<g id="a_edge15"><a xlink:title="0.04GB">
<path fill="none" stroke="black" d="M851,-114.54C851,-95.68 851,-68.09 851,-47.41"/>
<polygon fill="black" stroke="black" points="854.5,-47.66 851,-37.66 847.5,-47.66 854.5,-47.66"/>
</a>
</g>
<g id="a_edge15&#45;label"><a xlink:title="0.04GB">
<text text-anchor="middle" x="874.5" y="-57.8" font-family="Times,serif" font-size="14.00"> 0.04GB</text>
</a>
</g>
</g>
<!-- N9 -->
<g id="node9" class="node">
<title>N9</title>
<g id="a_node9"><a xlink:title="bufio.NewReader (0.04GB)">
<polygon fill="#edecec" stroke="#b2b0aa" points="893.5,-289 808.5,-289 808.5,-253 893.5,-253 893.5,-289"/>
<text text-anchor="middle" x="851" y="-278.1" font-family="Times,serif" font-size="8.00">bufio</text>
<text text-anchor="middle" x="851" y="-269.1" font-family="Times,serif" font-size="8.00">NewReader</text>
<text text-anchor="middle" x="851" y="-260.1" font-family="Times,serif" font-size="8.00">0 of 0.04GB (0.85%)</text>
</a>
</g>
</g>
<!-- N9&#45;&gt;N8 -->
<g id="edge23" class="edge">
<title>N9&#45;&gt;N8</title>
<g id="a_edge23"><a xlink:title="bufio.NewReader &#45;&gt; bufio.NewReaderSize (0.04GB)">
<path fill="none" stroke="#b2b0aa" d="M851,-252.74C851,-231.9 851,-196.39 851,-170.38"/>
<polygon fill="#b2b0aa" stroke="#b2b0aa" points="854.5,-170.7 851,-160.7 847.5,-170.7 854.5,-170.7"/>
</a>
</g>
<g id="a_edge23&#45;label"><a xlink:title="bufio.NewReader &#45;&gt; bufio.NewReaderSize (0.04GB)">
<text text-anchor="middle" x="874.5" y="-223.8" font-family="Times,serif" font-size="14.00"> 0.04GB</text>
<text text-anchor="middle" x="874.5" y="-208.8" font-family="Times,serif" font-size="14.00"> (inline)</text>
</a>
</g>
</g>
<!-- N10&#45;&gt;N9 -->
<g id="edge24" class="edge">
<title>N10&#45;&gt;N9</title>
<g id="a_edge24"><a xlink:title="encoding/csv.NewReader &#45;&gt; bufio.NewReader (0.04GB)">
<path fill="none" stroke="#b2b0aa" d="M851,-405.68C851,-379.96 851,-331.41 851,-300.43"/>
<polygon fill="#b2b0aa" stroke="#b2b0aa" points="854.5,-300.63 851,-290.63 847.5,-300.63 854.5,-300.63"/>
</a>
</g>
<g id="a_edge24&#45;label"><a xlink:title="encoding/csv.NewReader &#45;&gt; bufio.NewReader (0.04GB)">
<text text-anchor="middle" x="874.5" y="-325.8" font-family="Times,serif" font-size="14.00"> 0.04GB</text>
<text text-anchor="middle" x="874.5" y="-310.8" font-family="Times,serif" font-size="14.00"> (inline)</text>
</a>
</g>
</g>
<!-- N11&#45;&gt;N2 -->
<g id="edge16" class="edge">
<title>N11&#45;&gt;N2</title>
<g id="a_edge16"><a xlink:title="github.com/roca/GO/tree/staging/pragprog/PowerfullCliApps/performance/colStats.BenchmarkRun &#45;&gt; github.com/roca/GO/tree/staging/pragprog/PowerfullCliApps/performance/colStats.run (5.03GB)">
<path fill="none" stroke="#b20000" stroke-width="5" d="M507,-971.53C507,-962.17 507,-949.99 507,-937.43"/>
<polygon fill="#b20000" stroke="#b20000" stroke-width="5" points="511.38,-937.73 507,-927.73 502.63,-937.73 511.38,-937.73"/>
</a>
</g>
<g id="a_edge16&#45;label"><a xlink:title="github.com/roca/GO/tree/staging/pragprog/PowerfullCliApps/performance/colStats.BenchmarkRun &#45;&gt; github.com/roca/GO/tree/staging/pragprog/PowerfullCliApps/performance/colStats.run (5.03GB)">
<text text-anchor="middle" x="530.5" y="-942.8" font-family="Times,serif" font-size="14.00"> 5.03GB</text>
</a>
</g>
</g>
</g>
</g></svg>
